v -4.00000025185210361 -0.57501240371254616 -9.97608997026944528
v -4.00000025185210361 5.42498759628737392 -9.97608899274533552
v 3.99999974814789632 5.42498759628737392 -9.97608899274533552
v 3.99999974814789632 -0.57501240371254616 -9.97608997026944528
v -4.00000025185210361 -0.5750150104435088 6.02391002973034162
v 3.99999974814789632 -0.5750150104435088 6.02391002973034162
v 3.99999974814789632 5.42498498955641128 6.02391100725445128
v -4.00000025185210361 5.42498498955641128 6.02391100725445128
v -4.00000025185210361 -0.57501240371254616 -9.97608997026944528
v 3.99999974814789632 -0.57501240371254616 -9.97608997026944528
v 3.99999974814789632 -0.5750150104435088 6.02391002973034162
v -4.00000025185210361 -0.5750150104435088 6.02391002973034162
v 3.99999974814789632 -0.57501240371254616 -9.97608997026944528
v 3.99999974814789632 5.42498759628737392 -9.97608899274533552
v 3.99999974814789632 5.42498498955641128 6.02391100725445128
v 3.99999974814789632 -0.5750150104435088 6.02391002973034162
v 3.99999974814789632 5.42498759628737392 -9.97608899274533552
v -4.00000025185210361 5.42498759628737392 -9.97608899274533552
v -4.00000025185210361 5.42498498955641128 6.02391100725445128
v 3.99999974814789632 5.42498498955641128 6.02391100725445128
v -4.00000025185210361 5.42498759628737392 -9.97608899274533552
v -4.00000025185210361 -0.57501240371254616 -9.97608997026944528
v -4.00000025185210361 -0.5750150104435088 6.02391002973034162
v -4.00000025185210361 5.42498498955641128 6.02391100725445128
v -3.00000025185210361 3.42498674590928288 4.02391068141334074
v -3.00000025185210361 9.42498674590920336 4.02391165893745217
v 2.99999974814789632 9.42498674590920336 4.02391165893745217
v 2.99999974814789632 3.42498674590928288 4.02391068141334074
v -3.00000025185210361 3.42498544254380152 12.02391068141323771
v 2.99999974814789632 3.42498544254380152 12.02391068141323771
v 2.99999974814789632 9.42498544254372208 12.02391165893734737
v -3.00000025185210361 9.42498544254372208 12.02391165893734737
v -3.00000025185210361 3.42498674590928288 4.02391068141334074
v 2.99999974814789632 3.42498674590928288 4.02391068141334074
v 2.99999974814789632 3.42498544254380152 12.02391068141323771
v -3.00000025185210361 3.42498544254380152 12.02391068141323771
v 2.99999974814789632 3.42498674590928288 4.02391068141334074
v 2.99999974814789632 9.42498674590920336 4.02391165893745217
v 2.99999974814789632 9.42498544254372208 12.02391165893734737
v 2.99999974814789632 3.42498544254380152 12.02391068141323771
v 2.99999974814789632 9.42498674590920336 4.02391165893745217
v -3.00000025185210361 9.42498674590920336 4.02391165893745217
v -3.00000025185210361 9.42498544254372208 12.02391165893734737
v 2.99999974814789632 9.42498544254372208 12.02391165893734737
v -3.00000025185210361 9.42498674590920336 4.02391165893745217
v -3.00000025185210361 3.42498674590928288 4.02391068141334074
v -3.00000025185210361 3.42498544254380152 12.02391068141323771
v -3.00000025185210361 9.42498544254372208 12.02391165893734737
v -5.00000025185210361 -12.57501228849160136 1.02390998203112815
v -5.00000025185210361 -0.5750122884917608 1.02391193707935102
v -1.00000025185210361 -0.5750122884917608 1.02391193707935102
v -1.00000025185210361 -12.57501228849160136 1.02390998203112815
v -5.00000025185210361 -12.57501294017434288 5.02390998203107486
v -1.00000025185210361 -12.57501294017434288 5.02390998203107486
v -1.00000025185210361 -0.57501294017450144 5.02391193707929773
v -5.00000025185210361 -0.57501294017450144 5.02391193707929773
v -5.00000025185210361 -12.57501228849160136 1.02390998203112815
v -1.00000025185210361 -12.57501228849160136 1.02390998203112815
v -1.00000025185210361 -12.57501294017434288 5.02390998203107486
v -5.00000025185210361 -12.57501294017434288 5.02390998203107486
v -1.00000025185210361 -12.57501228849160136 1.02390998203112815
v -1.00000025185210361 -0.5750122884917608 1.02391193707935102
v -1.00000025185210361 -0.57501294017450144 5.02391193707929773
v -1.00000025185210361 -12.57501294017434288 5.02390998203107486
v -1.00000025185210361 -0.5750122884917608 1.02391193707935102
v -5.00000025185210361 -0.5750122884917608 1.02391193707935102
v -5.00000025185210361 -0.57501294017450144 5.02391193707929773
v -1.00000025185210361 -0.57501294017450144 5.02391193707929773
v -5.00000025185210361 -0.5750122884917608 1.02391193707935102
v -5.00000025185210361 -12.57501228849160136 1.02390998203112815
v -5.00000025185210361 -12.57501294017434288 5.02390998203107486
v -5.00000025185210361 -0.57501294017450144 5.02391193707929773
v 0.99999974814789632 -12.57501228849160136 1.02390998203112815
v 0.99999974814789632 -0.5750122884917608 1.02391193707935102
v 4.99999974814789632 -0.5750122884917608 1.02391193707935102
v 4.99999974814789632 -12.57501228849160136 1.02390998203112815
v 0.99999974814789632 -12.57501294017434288 5.02390998203107486
v 4.99999974814789632 -12.57501294017434288 5.02390998203107486
v 4.99999974814789632 -0.57501294017450144 5.02391193707929773
v 0.99999974814789632 -0.57501294017450144 5.02391193707929773
v 0.99999974814789632 -12.57501228849160136 1.02390998203112815
v 4.99999974814789632 -12.57501228849160136 1.02390998203112815
v 4.99999974814789632 -12.57501294017434288 5.02390998203107486
v 0.99999974814789632 -12.57501294017434288 5.02390998203107486
v 4.99999974814789632 -12.57501228849160136 1.02390998203112815
v 4.99999974814789632 -0.5750122884917608 1.02391193707935102
v 4.99999974814789632 -0.57501294017450144 5.02391193707929773
v 4.99999974814789632 -12.57501294017434288 5.02390998203107486
v 4.99999974814789632 -0.5750122884917608 1.02391193707935102
v 0.99999974814789632 -0.5750122884917608 1.02391193707935102
v 0.99999974814789632 -0.57501294017450144 5.02391193707929773
v 4.99999974814789632 -0.57501294017450144 5.02391193707929773
v 0.99999974814789632 -0.5750122884917608 1.02391193707935102
v 0.99999974814789632 -12.57501228849160136 1.02390998203112815
v 0.99999974814789632 -12.57501294017434288 5.02390998203107486
v 0.99999974814789632 -0.57501294017450144 5.02391193707929773
v -4.99999977501494544 -12.57501224079201304 -10.97609001796902112
v -4.99999977501494544 -0.5750122407921716 -10.9760880629208
v -0.99999977501494544 -0.5750122407921716 -10.9760880629208
v -0.99999977501494544 -12.57501224079201304 -10.97609001796902112
v -4.99999977501494544 -12.57501289247475288 -6.9760900179690744
v -0.99999977501494544 -12.57501289247475288 -6.9760900179690744
v -0.99999977501494544 -0.57501289247491224 -6.97608806292085328
v -4.99999977501494544 -0.57501289247491224 -6.97608806292085328
v -4.99999977501494544 -12.57501224079201304 -10.97609001796902112
v -0.99999977501494544 -12.57501224079201304 -10.97609001796902112
v -0.99999977501494544 -12.57501289247475288 -6.9760900179690744
v -4.99999977501494544 -12.57501289247475288 -6.9760900179690744
v -0.99999977501494544 -12.57501224079201304 -10.97609001796902112
v -0.99999977501494544 -0.5750122407921716 -10.9760880629208
v -0.99999977501494544 -0.57501289247491224 -6.97608806292085328
v -0.99999977501494544 -12.57501289247475288 -6.9760900179690744
v -0.99999977501494544 -0.5750122407921716 -10.9760880629208
v -4.99999977501494544 -0.5750122407921716 -10.9760880629208
v -4.99999977501494544 -0.57501289247491224 -6.97608806292085328
v -0.99999977501494544 -0.57501289247491224 -6.97608806292085328
v -4.99999977501494544 -0.5750122407921716 -10.9760880629208
v -4.99999977501494544 -12.57501224079201304 -10.97609001796902112
v -4.99999977501494544 -12.57501289247475288 -6.9760900179690744
v -4.99999977501494544 -0.57501289247491224 -6.97608806292085328
v 1.00000022498505458 -12.57501224079201304 -10.97609001796902112
v 1.00000022498505458 -0.5750122407921716 -10.9760880629208
v 5.00000022498505458 -0.5750122407921716 -10.9760880629208
v 5.00000022498505458 -12.57501224079201304 -10.97609001796902112
v 1.00000022498505458 -12.57501289247475288 -6.9760900179690744
v 5.00000022498505458 -12.57501289247475288 -6.9760900179690744
v 5.00000022498505458 -0.57501289247491224 -6.97608806292085328
v 1.00000022498505458 -0.57501289247491224 -6.97608806292085328
v 1.00000022498505458 -12.57501224079201304 -10.97609001796902112
v 5.00000022498505458 -12.57501224079201304 -10.97609001796902112
v 5.00000022498505458 -12.57501289247475288 -6.9760900179690744
v 1.00000022498505458 -12.57501289247475288 -6.9760900179690744
v 5.00000022498505458 -12.57501224079201304 -10.97609001796902112
v 5.00000022498505458 -0.5750122407921716 -10.9760880629208
v 5.00000022498505458 -0.57501289247491224 -6.97608806292085328
v 5.00000022498505458 -12.57501289247475288 -6.9760900179690744
v 5.00000022498505458 -0.5750122407921716 -10.9760880629208
v 1.00000022498505458 -0.5750122407921716 -10.9760880629208
v 1.00000022498505458 -0.57501289247491224 -6.97608806292085328
v 5.00000022498505458 -0.57501289247491224 -6.97608806292085328
v 1.00000022498505458 -0.5750122407921716 -10.9760880629208
v 1.00000022498505458 -12.57501224079201304 -10.97609001796902112
v 1.00000022498505458 -12.57501289247475288 -6.9760900179690744
v 1.00000022498505458 -0.57501289247491224 -6.97608806292085328
vn 0 1.6292068516499045E-07 -0.99999999999998672
vn 0 1.6292068516499045E-07 -0.99999999999998672
vn 0 1.6292068516499045E-07 -0.99999999999998672
vn 0 1.6292068516499045E-07 -0.99999999999998672
vn 0 -1.6292068516499045E-07 0.99999999999998672
vn 0 -1.6292068516499045E-07 0.99999999999998672
vn 0 -1.6292068516499045E-07 0.99999999999998672
vn 0 -1.6292068516499045E-07 0.99999999999998672
vn 0 -0.99999999999998672 -1.6292068516499045E-07
vn 0 -0.99999999999998672 -1.6292068516499045E-07
vn 0 -0.99999999999998672 -1.6292068516499045E-07
vn 0 -0.99999999999998672 -1.6292068516499045E-07
vn 1 0 0
vn 1 0 0
vn 1 0 0
vn 1 0 0
vn 0 0.99999999999998672 1.6292068516499045E-07
vn 0 0.99999999999998672 1.6292068516499045E-07
vn 0 0.99999999999998672 1.6292068516499045E-07
vn 0 0.99999999999998672 1.6292068516499045E-07
vn -1 0 0
vn -1 0 0
vn -1 0 0
vn -1 0 0
vn 0 1.6292068516499045E-07 -0.99999999999998672
vn 0 1.6292068516499045E-07 -0.99999999999998672
vn 0 1.6292068516499045E-07 -0.99999999999998672
vn 0 1.6292068516499045E-07 -0.99999999999998672
vn 0 -1.6292068516499045E-07 0.99999999999998672
vn 0 -1.6292068516499045E-07 0.99999999999998672
vn 0 -1.6292068516499045E-07 0.99999999999998672
vn 0 -1.6292068516499045E-07 0.99999999999998672
vn 0 -0.99999999999998672 -1.6292068516499045E-07
vn 0 -0.99999999999998672 -1.6292068516499045E-07
vn 0 -0.99999999999998672 -1.6292068516499045E-07
vn 0 -0.99999999999998672 -1.6292068516499045E-07
vn 1 0 0
vn 1 0 0
vn 1 0 0
vn 1 0 0
vn 0 0.99999999999998672 1.6292068516499045E-07
vn 0 0.99999999999998672 1.6292068516499045E-07
vn 0 0.99999999999998672 1.6292068516499045E-07
vn 0 0.99999999999998672 1.6292068516499045E-07
vn -1 0 0
vn -1 0 0
vn -1 0 0
vn -1 0 0
vn 0 1.6292068516499045E-07 -0.99999999999998672
vn 0 1.6292068516499045E-07 -0.99999999999998672
vn 0 1.6292068516499045E-07 -0.99999999999998672
vn 0 1.6292068516499045E-07 -0.99999999999998672
vn 0 -1.6292068516499045E-07 0.99999999999998672
vn 0 -1.6292068516499045E-07 0.99999999999998672
vn 0 -1.6292068516499045E-07 0.99999999999998672
vn 0 -1.6292068516499045E-07 0.99999999999998672
vn 0 -0.99999999999998672 -1.6292068516499045E-07
vn 0 -0.99999999999998672 -1.6292068516499045E-07
vn 0 -0.99999999999998672 -1.6292068516499045E-07
vn 0 -0.99999999999998672 -1.6292068516499045E-07
vn 1 0 0
vn 1 0 0
vn 1 0 0
vn 1 0 0
vn 0 0.99999999999998672 1.6292068516499045E-07
vn 0 0.99999999999998672 1.6292068516499045E-07
vn 0 0.99999999999998672 1.6292068516499045E-07
vn 0 0.99999999999998672 1.6292068516499045E-07
vn -1 0 0
vn -1 0 0
vn -1 0 0
vn -1 0 0
vn 0 1.6292068516499045E-07 -0.99999999999998672
vn 0 1.6292068516499045E-07 -0.99999999999998672
vn 0 1.6292068516499045E-07 -0.99999999999998672
vn 0 1.6292068516499045E-07 -0.99999999999998672
vn 0 -1.6292068516499045E-07 0.99999999999998672
vn 0 -1.6292068516499045E-07 0.99999999999998672
vn 0 -1.6292068516499045E-07 0.99999999999998672
vn 0 -1.6292068516499045E-07 0.99999999999998672
vn 0 -0.99999999999998672 -1.6292068516499045E-07
vn 0 -0.99999999999998672 -1.6292068516499045E-07
vn 0 -0.99999999999998672 -1.6292068516499045E-07
vn 0 -0.99999999999998672 -1.6292068516499045E-07
vn 1 0 0
vn 1 0 0
vn 1 0 0
vn 1 0 0
vn 0 0.99999999999998672 1.6292068516499045E-07
vn 0 0.99999999999998672 1.6292068516499045E-07
vn 0 0.99999999999998672 1.6292068516499045E-07
vn 0 0.99999999999998672 1.6292068516499045E-07
vn -1 0 0
vn -1 0 0
vn -1 0 0
vn -1 0 0
vn 0 1.6292068516499045E-07 -0.99999999999998672
vn 0 1.6292068516499045E-07 -0.99999999999998672
vn 0 1.6292068516499045E-07 -0.99999999999998672
vn 0 1.6292068516499045E-07 -0.99999999999998672
vn 0 -1.6292068516499045E-07 0.99999999999998672
vn 0 -1.6292068516499045E-07 0.99999999999998672
vn 0 -1.6292068516499045E-07 0.99999999999998672
vn 0 -1.6292068516499045E-07 0.99999999999998672
vn 0 -0.99999999999998672 -1.6292068516499045E-07
vn 0 -0.99999999999998672 -1.6292068516499045E-07
vn 0 -0.99999999999998672 -1.6292068516499045E-07
vn 0 -0.99999999999998672 -1.6292068516499045E-07
vn 1 0 0
vn 1 0 0
vn 1 0 0
vn 1 0 0
vn 0 0.99999999999998672 1.6292068516499045E-07
vn 0 0.99999999999998672 1.6292068516499045E-07
vn 0 0.99999999999998672 1.6292068516499045E-07
vn 0 0.99999999999998672 1.6292068516499045E-07
vn -1 0 0
vn -1 0 0
vn -1 0 0
vn -1 0 0
vn 0 1.6292068516499045E-07 -0.99999999999998672
vn 0 1.6292068516499045E-07 -0.99999999999998672
vn 0 1.6292068516499045E-07 -0.99999999999998672
vn 0 1.6292068516499045E-07 -0.99999999999998672
vn 0 -1.6292068516499045E-07 0.99999999999998672
vn 0 -1.6292068516499045E-07 0.99999999999998672
vn 0 -1.6292068516499045E-07 0.99999999999998672
vn 0 -1.6292068516499045E-07 0.99999999999998672
vn 0 -0.99999999999998672 -1.6292068516499045E-07
vn 0 -0.99999999999998672 -1.6292068516499045E-07
vn 0 -0.99999999999998672 -1.6292068516499045E-07
vn 0 -0.99999999999998672 -1.6292068516499045E-07
vn 1 0 0
vn 1 0 0
vn 1 0 0
vn 1 0 0
vn 0 0.99999999999998672 1.6292068516499045E-07
vn 0 0.99999999999998672 1.6292068516499045E-07
vn 0 0.99999999999998672 1.6292068516499045E-07
vn 0 0.99999999999998672 1.6292068516499045E-07
vn -1 0 0
vn -1 0 0
vn -1 0 0
vn -1 0 0
vt 0.8125 -0.78143709897994992 0
vt 0.8125 -0.875 0
vt 0.67162764072418216 -0.875 0
vt 0.67172020673751832 -0.78143709897994992 0
vt 0.53120362758636472 -0.78133201599121088 0
vt 0.67172020673751832 -0.78143709897994992 0
vt 0.67162764072418216 -0.875 0
vt 0.53120362758636472 -0.875 0
vt 0.53095102310180664 -0.53173577785491944 0
vt 0.65610992908477784 -0.53168946504592896 0
vt 0.65636253356933592 -0.78128570318222048 0
vt 0.53120362758636472 -0.78133201599121088 0
vt 0.65610992908477784 -0.53168946504592896 0
vt 0.75 -0.53168946504592896 0
vt 0.75025260448455808 -0.78128570318222048 0
vt 0.65636253356933592 -0.78128570318222048 0
vt 0.75 -0.53168946504592896 0
vt 0.875 -0.53168946504592896 0
vt 0.875 -0.78128570318222048 0
vt 0.75025260448455808 -0.78128570318222048 0
vt 0.4375 -0.53168946504592896 0
vt 0.53095102310180664 -0.53173577785491944 0
vt 0.53120362758636472 -0.78133201599121088 0
vt 0.4375 -0.78128570318222048 0
vt 0.437478631734848 -0.78142577409744256 0
vt 0.437478631734848 -0.875 0
vt 0.34375998377799988 -0.875 0
vt 0.34375998377799988 -0.78142577409744256 0
vt 0.125 -0.78142577409744256 0
vt 0.21875999867916108 -0.78142577409744256 0
vt 0.21875999867916108 -0.875 0
vt 0.125 -0.875 0
vt 0.21875999867916108 -1 0
vt 0.31257578730583192 -1 0
vt 0.31269073486328124 -0.875 0
vt 0.21876001358032228 -0.875 0
vt 0.34375998377799988 -0.78142577409744256 0
vt 0.34375998377799988 -0.875 0
vt 0.21876001358032228 -0.875 0
vt 0.21876001358032228 -0.78142577409744256 0
vt 0.21875999867916108 -1 0
vt 0.125 -1 0
vt 0.125 -0.875 0
vt 0.21876001358032228 -0.875 0
vt 0 -0.875 0
vt 0 -0.78142577409744256 0
vt 0.125 -0.78142577409744256 0
vt 0.125 -0.875 0
vt 0.25 -0.5 0
vt 0.25 -0.6875 0
vt 0.1875 -0.6875 0
vt 0.1875 -0.5 0
vt 0.0625 -0.5 0
vt 0.125 -0.5 0
vt 0.125 -0.6875 0
vt 0.0625 -0.6875 0
vt 0.125 -0.75 0
vt 0.1875 -0.75 0
vt 0.1875 -0.6875 0
vt 0.125 -0.6875 0
vt 0.1875 -0.5 0
vt 0.1875 -0.6875 0
vt 0.125 -0.6875 0
vt 0.125 -0.5 0
vt 0.125 -0.75 0
vt 0.0625 -0.75 0
vt 0.0625 -0.6875 0
vt 0.125 -0.6875 0
vt 0 -0.6875 0
vt 0 -0.5 0
vt 0.0625 -0.5 0
vt 0.0625 -0.6875 0
vt 0.25 -0.5 0
vt 0.25 -0.6875 0
vt 0.1875 -0.6875 0
vt 0.1875 -0.5 0
vt 0.0625 -0.5 0
vt 0.125 -0.5 0
vt 0.125 -0.6875 0
vt 0.0625 -0.6875 0
vt 0.125 -0.75 0
vt 0.1875 -0.75 0
vt 0.1875 -0.6875 0
vt 0.125 -0.6875 0
vt 0.1875 -0.5 0
vt 0.1875 -0.6875 0
vt 0.125 -0.6875 0
vt 0.125 -0.5 0
vt 0.125 -0.75 0
vt 0.0625 -0.75 0
vt 0.0625 -0.6875 0
vt 0.125 -0.6875 0
vt 0 -0.6875 0
vt 0 -0.5 0
vt 0.0625 -0.5 0
vt 0.0625 -0.6875 0
vt 0.25 -0.5 0
vt 0.25 -0.6875 0
vt 0.1875 -0.6875 0
vt 0.1875 -0.5 0
vt 0.0625 -0.5 0
vt 0.125 -0.5 0
vt 0.125 -0.6875 0
vt 0.0625 -0.6875 0
vt 0.125 -0.75 0
vt 0.1875 -0.75 0
vt 0.1875 -0.6875 0
vt 0.125 -0.6875 0
vt 0.1875 -0.5 0
vt 0.1875 -0.6875 0
vt 0.125 -0.6875 0
vt 0.125 -0.5 0
vt 0.125 -0.75 0
vt 0.0625 -0.75 0
vt 0.0625 -0.6875 0
vt 0.125 -0.6875 0
vt 0 -0.6875 0
vt 0 -0.5 0
vt 0.0625 -0.5 0
vt 0.0625 -0.6875 0
vt 0.25 -0.5 0
vt 0.25 -0.6875 0
vt 0.1875 -0.6875 0
vt 0.1875 -0.5 0
vt 0.0625 -0.5 0
vt 0.125 -0.5 0
vt 0.125 -0.6875 0
vt 0.0625 -0.6875 0
vt 0.125 -0.75 0
vt 0.1875 -0.75 0
vt 0.1875 -0.6875 0
vt 0.125 -0.6875 0
vt 0.1875 -0.5 0
vt 0.1875 -0.6875 0
vt 0.125 -0.6875 0
vt 0.125 -0.5 0
vt 0.125 -0.75 0
vt 0.0625 -0.75 0
vt 0.0625 -0.6875 0
vt 0.125 -0.6875 0
vt 0 -0.6875 0
vt 0 -0.5 0
vt 0.0625 -0.5 0
vt 0.0625 -0.6875 0
f 1/1/1 2/2/2 3/3/3
f 1/1/1 3/3/3 4/4/4
f 5/5/5 6/6/6 7/7/7
f 5/5/5 7/7/7 8/8/8
f 9/9/9 10/10/10 11/11/11
f 9/9/9 11/11/11 12/12/12
f 13/13/13 14/14/14 15/15/15
f 13/13/13 15/15/15 16/16/16
f 17/17/17 18/18/18 19/19/19
f 17/17/17 19/19/19 20/20/20
f 21/21/21 22/22/22 23/23/23
f 21/21/21 23/23/23 24/24/24
f 25/25/25 26/26/26 27/27/27
f 25/25/25 27/27/27 28/28/28
f 29/29/29 30/30/30 31/31/31
f 29/29/29 31/31/31 32/32/32
f 33/33/33 34/34/34 35/35/35
f 33/33/33 35/35/35 36/36/36
f 37/37/37 38/38/38 39/39/39
f 37/37/37 39/39/39 40/40/40
f 41/41/41 42/42/42 43/43/43
f 41/41/41 43/43/43 44/44/44
f 45/45/45 46/46/46 47/47/47
f 45/45/45 47/47/47 48/48/48
f 49/49/49 50/50/50 51/51/51
f 49/49/49 51/51/51 52/52/52
f 53/53/53 54/54/54 55/55/55
f 53/53/53 55/55/55 56/56/56
f 57/57/57 58/58/58 59/59/59
f 57/57/57 59/59/59 60/60/60
f 61/61/61 62/62/62 63/63/63
f 61/61/61 63/63/63 64/64/64
f 65/65/65 66/66/66 67/67/67
f 65/65/65 67/67/67 68/68/68
f 69/69/69 70/70/70 71/71/71
f 69/69/69 71/71/71 72/72/72
f 73/73/73 74/74/74 75/75/75
f 73/73/73 75/75/75 76/76/76
f 77/77/77 78/78/78 79/79/79
f 77/77/77 79/79/79 80/80/80
f 81/81/81 82/82/82 83/83/83
f 81/81/81 83/83/83 84/84/84
f 85/85/85 86/86/86 87/87/87
f 85/85/85 87/87/87 88/88/88
f 89/89/89 90/90/90 91/91/91
f 89/89/89 91/91/91 92/92/92
f 93/93/93 94/94/94 95/95/95
f 93/93/93 95/95/95 96/96/96
f 97/97/97 98/98/98 99/99/99
f 97/97/97 99/99/99 100/100/100
f 101/101/101 102/102/102 103/103/103
f 101/101/101 103/103/103 104/104/104
f 105/105/105 106/106/106 107/107/107
f 105/105/105 107/107/107 108/108/108
f 109/109/109 110/110/110 111/111/111
f 109/109/109 111/111/111 112/112/112
f 113/113/113 114/114/114 115/115/115
f 113/113/113 115/115/115 116/116/116
f 117/117/117 118/118/118 119/119/119
f 117/117/117 119/119/119 120/120/120
f 121/121/121 122/122/122 123/123/123
f 121/121/121 123/123/123 124/124/124
f 125/125/125 126/126/126 127/127/127
f 125/125/125 127/127/127 128/128/128
f 129/129/129 130/130/130 131/131/131
f 129/129/129 131/131/131 132/132/132
f 133/133/133 134/134/134 135/135/135
f 133/133/133 135/135/135 136/136/136
f 137/137/137 138/138/138 139/139/139
f 137/137/137 139/139/139 140/140/140
f 141/141/141 142/142/142 143/143/143
f 141/141/141 143/143/143 144/144/144